ply
format ascii 1.0
comment Nominal parameter setting
element vertex 26
property float64 x
property float64 y
property float64 z
element face 48
property list uchar int vertex_indices
end_header
       0        0        0
       0 2.80940107675851        0
       0 5.61880215351701        0
       0 1.15470053837925        2
       0 2.8094010767585        2
       0 4.46410161513776        2
       0 2.3094010767585        4
       0 2.8094010767585        4
       0 3.3094010767585        4
      10        0        0
      10 2.80940107675851        0
      10 5.61880215351701        0
      10 1.15470053837925        2
      10 2.8094010767585        2
      10 4.46410161513776        2
      10 2.3094010767585        4
      10 2.8094010767585        4
      10 3.3094010767585        4
       5        0        0
       5 1.15470053837925        2
       5 2.3094010767585        4
       5 5.61880215351701        0
       5 4.46410161513776        2
       5 3.3094010767585        4
       5 2.80940107675851        0
       5 2.8094010767585        4
3 0 1 4
3 1 0 24
3 24 21 1
3 4 1 5
3 0 18 19
3 18 0 24
3 19 3 0
3 4 0 3
3 4 3 7
3 12 19 18
3 2 5 22
3 22 21 2
3 1 5 2
3 22 5 23
3 3 6 20
3 20 19 3
3 6 3 7
3 20 6 25
3 5 8 23
3 4 8 5
3 7 23 8
3 4 7 8
3 23 7 25
3 6 25 7
3 9 10 13
3 10 9 18
3 13 12 9
3 13 10 14
3 10 11 14
3 11 10 24
3 24 21 11
3 10 18 24
3 9 12 18
3 14 11 21
3 12 13 16
3 16 15 12
3 16 13 17
3 1 2 21
3 13 14 17
3 17 14 22
3 12 15 19
3 19 15 20
3 15 16 20
3 20 16 25
3 16 17 25
3 14 21 22
3 17 22 23
3 17 23 25
